<svg width="22" height="22" viewBox="0 0 22 22" fill="none" xmlns="http://www.w3.org/2000/svg">
<path fill-rule="evenodd" clip-rule="evenodd" d="M9.85456 3H12.1405V5.42112L13.3133 6.59389L15.2451 4.66205L16.8615 6.27846L14.9297 8.21031L16.5763 9.85694H18.9992V12.1429H16.5749L14.7171 14.0007L16.8615 16.1451L15.2451 17.7615L13.1007 15.6171L12.1405 16.5773V18.9992H9.85456V16.5765L8.53092 15.2529L6.38672 17.3971L4.77031 15.7807L6.91452 13.6365L5.42097 12.1429H3L3 9.85694H5.41958L6.70042 8.5761L4.77031 6.64599L6.38672 5.02959L8.31682 6.95968L9.85456 5.42193V3ZM14.7996 10.9962L10.9979 7.19446L7.19628 10.9962L10.9979 14.7978L14.7996 10.9962Z" fill="white"/>
</svg>
