<svg width="17" height="16" viewBox="0 0 17 16" fill="current" xmlns="http://www.w3.org/2000/svg">
<path d="M6.30405 0.958693C6.34764 0.745427 6.65236 0.745425 6.69595 0.958691L7.20623 3.45529C7.44691 4.63284 8.36716 5.55308 9.54471 5.79377L12.0413 6.30405C12.2546 6.34764 12.2546 6.65236 12.0413 6.69595L9.54471 7.20623C8.36716 7.44692 7.44692 8.36716 7.20623 9.54471L6.69595 12.0413C6.65236 12.2546 6.34764 12.2546 6.30405 12.0413L5.79377 9.54471C5.55308 8.36716 4.63284 7.44692 3.45529 7.20623L0.958693 6.69595C0.745427 6.65236 0.745425 6.34764 0.958691 6.30405L3.45529 5.79377C4.63284 5.55308 5.55308 4.63284 5.79377 3.45529L6.30405 0.958693Z" fill="current"/>
<path d="M12.8824 8.57521C12.9086 8.44726 13.0914 8.44726 13.1176 8.57521L13.4407 10.1562C13.5851 10.8627 14.1373 11.4149 14.8438 11.5593L16.4248 11.8824C16.5527 11.9086 16.5527 12.0914 16.4248 12.1176L14.8438 12.4407C14.1373 12.5851 13.5851 13.1373 13.4407 13.8438L13.1176 15.4248C13.0914 15.5527 12.9086 15.5527 12.8824 15.4248L12.5593 13.8438C12.4149 13.1373 11.8627 12.5851 11.1562 12.4407L9.57521 12.1176C9.44726 12.0914 9.44726 11.9086 9.57521 11.8824L11.1562 11.5593C11.8627 11.4149 12.4149 10.8627 12.5593 10.1562L12.8824 8.57521Z" fill="current"/>
</svg>
