<svg width="169" height="43" viewBox="0 0 169 43" fill="none" xmlns="http://www.w3.org/2000/svg">
<path d="M118.056 33.3768L88.1133 3.46747L82.853 8.72181L112.796 38.6312L118.056 33.3768Z" fill="#B5B5B5"/>
<path d="M112.217 3.27522L82.2734 33.1846L87.5337 38.4389L117.477 8.52957L112.217 3.27522Z" fill="#B5B5B5"/>
<path d="M103.939 42.8451V0L96.0052 0V42.8451H103.939Z" fill="white"/>
<path d="M121.395 17.4554H79.3438V24.5962H121.395V17.4554Z" fill="white"/>
<path fill-rule="evenodd" clip-rule="evenodd" d="M21.5354 0H0V42.8451H10.9951V31.1972H32.5305V0H21.5354ZM21.5354 19.6685H10.9951V11.5287H21.5354V19.6685Z" fill="white"/>
<path fill-rule="evenodd" clip-rule="evenodd" d="M62.0003 0H40.4648V42.8451H51.4599V28.7961H59.1419V42.8451H70.137V28.7961H72.9954V0H62.0003ZM62.0003 17.2675H51.4599V11.5457H62.0003V17.2675Z" fill="white"/>
<path fill-rule="evenodd" clip-rule="evenodd" d="M157.471 0H153.333H141.804H137.683H126.154V11.5287V42.8451H137.683V11.5287H141.804V42.8451H153.333V11.5287H157.471V42.8451H168.999V11.5287V0H157.471Z" fill="white"/>
</svg>
