<svg width="85" height="22" viewBox="0 0 85 22" fill="none" xmlns="http://www.w3.org/2000/svg">
<rect x="0.0527344" y="0.742798" width="5.03171" height="20.913" fill="#5DED6B"/>
<rect x="8.38672" y="8.91931" width="5.03171" height="4.87447" fill="white"/>
<rect x="16.5625" y="0.742798" width="4.87447" height="20.913" fill="#5DED6B"/>
<rect x="21.4375" y="0.742798" width="4.71723" height="21.3848" transform="rotate(90 21.4375 0.742798)" fill="#5DED6B"/>
<rect x="21.4375" y="16.6241" width="5.03171" height="21.3848" transform="rotate(90 21.4375 16.6241)" fill="#5DED6B"/>
<rect x="30" y="0.742798" width="4.72708" height="13.5713" fill="#FF7193"/>
<rect x="46.9258" y="0.742798" width="4.72708" height="13.5713" fill="#FF7193"/>
<rect x="30" y="11.1119" width="4.72708" height="10.5216" fill="white"/>
<rect x="32.3184" y="11.1119" width="4.72708" height="10.5216" fill="white"/>
<rect x="44.543" y="11.1119" width="4.72708" height="10.5216" fill="white"/>
<rect x="46.9258" y="11.1119" width="4.72708" height="10.5216" fill="white"/>
<rect x="51.6523" y="0.742798" width="4.72708" height="21.6531" transform="rotate(90 51.6523 0.742798)" fill="#FF7193"/>
<rect x="60.041" y="8.90955" width="4.16847" height="15.4048" transform="rotate(-45 60.041 8.90955)" fill="#675AFF"/>
<rect width="4.16847" height="15.4048" transform="matrix(-0.707107 -0.707107 -0.707107 0.707107 84.127 8.90955)" fill="#675AFF"/>
<rect x="84.1191" y="15.8063" width="4.31193" height="24.1199" transform="rotate(90 84.1191 15.8063)" fill="white"/>
<rect x="69.9707" y="1.38831" width="4.04244" height="18.7299" fill="white"/>
</svg>
